<svg width="295" height="46" viewBox="0 0 295 46" fill="none" xmlns="http://www.w3.org/2000/svg">
<path d="M19.96 32.848H10.216L8.536 40H0.376L10.408 6.736H19.96L29.992 40H21.64L19.96 32.848ZM18.568 27.136L15.064 12.448L11.56 27.136H18.568ZM39.0565 40.816C36.8485 40.816 35.1205 40.192 33.8725 38.944C32.6565 37.664 32.0485 35.856 32.0485 33.52V4.384L39.6325 3.568V33.232C39.6325 34.288 40.0645 34.816 40.9285 34.816C41.3765 34.816 41.7925 34.736 42.1765 34.576L43.6645 39.952C42.2885 40.528 40.7525 40.816 39.0565 40.816ZM66.7945 32.608C66.7945 33.568 66.9225 34.272 67.1785 34.72C67.4665 35.168 67.9145 35.504 68.5225 35.728L66.9385 40.672C65.3705 40.544 64.0905 40.208 63.0985 39.664C62.1385 39.12 61.3705 38.24 60.7945 37.024C59.1305 39.552 56.5705 40.816 53.1145 40.816C50.5865 40.816 48.5705 40.08 47.0665 38.608C45.5625 37.136 44.8105 35.216 44.8105 32.848C44.8105 30.064 45.8345 27.936 47.8825 26.464C49.9305 24.992 52.8905 24.256 56.7625 24.256H59.3545V23.152C59.3545 21.648 59.0345 20.624 58.3945 20.08C57.7545 19.504 56.6345 19.216 55.0345 19.216C54.2025 19.216 53.1945 19.344 52.0105 19.6C50.8265 19.824 49.6105 20.144 48.3625 20.56L46.6345 15.568C48.2345 14.96 49.8665 14.496 51.5305 14.176C53.2265 13.856 54.7945 13.696 56.2345 13.696C59.8825 13.696 62.5545 14.448 64.2505 15.952C65.9465 17.456 66.7945 19.712 66.7945 22.72V32.608ZM55.3225 35.392C56.1545 35.392 56.9065 35.184 57.5785 34.768C58.2825 34.352 58.8745 33.76 59.3545 32.992V28.432H57.4825C55.7545 28.432 54.4585 28.736 53.5945 29.344C52.7625 29.952 52.3465 30.896 52.3465 32.176C52.3465 33.2 52.6025 34 53.1145 34.576C53.6585 35.12 54.3945 35.392 55.3225 35.392ZM87.7634 13.696C89.9714 13.696 91.6994 14.368 92.9474 15.712C94.1954 17.056 94.8194 18.944 94.8194 21.376V40H87.2354V22.672C87.2354 21.392 87.0274 20.512 86.6114 20.032C86.2274 19.52 85.6354 19.264 84.8354 19.264C83.2994 19.264 81.8274 20.368 80.4194 22.576V40H72.8354V14.512H79.4594L79.9874 17.536C81.1074 16.256 82.2914 15.296 83.5394 14.656C84.8194 14.016 86.2274 13.696 87.7634 13.696ZM127.721 40H117.929L108.329 6.736H116.633L122.969 33.856L128.921 6.736H136.985L127.721 40ZM146.888 40H139.304V14.512H146.888V40ZM143.048 1.072C144.36 1.072 145.432 1.488 146.264 2.32C147.128 3.12 147.56 4.144 147.56 5.392C147.56 6.64 147.128 7.68 146.264 8.512C145.432 9.312 144.36 9.712 143.048 9.712C141.736 9.712 140.664 9.312 139.832 8.512C139 7.68 138.584 6.64 138.584 5.392C138.584 4.144 139 3.12 139.832 2.32C140.664 1.488 141.736 1.072 143.048 1.072ZM175.075 26.752C175.075 27.808 175.027 28.72 174.931 29.488H159.187C159.411 31.632 160.003 33.136 160.963 34C161.923 34.864 163.251 35.296 164.947 35.296C165.971 35.296 166.963 35.12 167.923 34.768C168.883 34.384 169.923 33.808 171.043 33.04L174.163 37.264C171.187 39.632 167.875 40.816 164.227 40.816C160.099 40.816 156.931 39.6 154.723 37.168C152.515 34.736 151.411 31.472 151.411 27.376C151.411 24.784 151.875 22.464 152.803 20.416C153.731 18.336 155.091 16.704 156.883 15.52C158.675 14.304 160.819 13.696 163.315 13.696C166.995 13.696 169.875 14.848 171.955 17.152C174.035 19.456 175.075 22.656 175.075 26.752ZM167.635 24.592C167.571 20.688 166.195 18.736 163.507 18.736C162.195 18.736 161.187 19.216 160.483 20.176C159.779 21.104 159.331 22.688 159.139 24.928H167.635V24.592ZM187.013 40H179.429V14.512H187.013V40ZM183.173 1.072C184.485 1.072 185.557 1.488 186.389 2.32C187.253 3.12 187.685 4.144 187.685 5.392C187.685 6.64 187.253 7.68 186.389 8.512C185.557 9.312 184.485 9.712 183.173 9.712C181.861 9.712 180.789 9.312 179.957 8.512C179.125 7.68 178.709 6.64 178.709 5.392C178.709 4.144 179.125 3.12 179.957 2.32C180.789 1.488 181.861 1.072 183.173 1.072ZM206.8 13.792C207.728 13.792 208.576 13.904 209.344 14.128L208.144 21.472C207.184 21.248 206.416 21.136 205.84 21.136C204.368 21.136 203.232 21.648 202.432 22.672C201.632 23.696 201.008 25.232 200.56 27.28V40H192.976V14.512H199.6L200.224 19.408C200.8 17.648 201.664 16.272 202.816 15.28C204 14.288 205.328 13.792 206.8 13.792ZM231.56 32.608C231.56 33.568 231.688 34.272 231.944 34.72C232.232 35.168 232.68 35.504 233.288 35.728L231.704 40.672C230.136 40.544 228.856 40.208 227.864 39.664C226.904 39.12 226.136 38.24 225.56 37.024C223.896 39.552 221.336 40.816 217.88 40.816C215.352 40.816 213.336 40.08 211.832 38.608C210.328 37.136 209.576 35.216 209.576 32.848C209.576 30.064 210.6 27.936 212.648 26.464C214.696 24.992 217.656 24.256 221.528 24.256H224.12V23.152C224.12 21.648 223.8 20.624 223.16 20.08C222.52 19.504 221.4 19.216 219.8 19.216C218.968 19.216 217.96 19.344 216.776 19.6C215.592 19.824 214.376 20.144 213.128 20.56L211.4 15.568C213 14.96 214.632 14.496 216.296 14.176C217.992 13.856 219.56 13.696 221 13.696C224.648 13.696 227.32 14.448 229.016 15.952C230.712 17.456 231.56 19.712 231.56 22.72V32.608ZM220.088 35.392C220.92 35.392 221.672 35.184 222.344 34.768C223.048 34.352 223.64 33.76 224.12 32.992V28.432H222.248C220.52 28.432 219.224 28.736 218.36 29.344C217.528 29.952 217.112 30.896 217.112 32.176C217.112 33.2 217.368 34 217.88 34.576C218.424 35.12 219.16 35.392 220.088 35.392ZM267.472 2.32L256.192 45.376L249.52 43.84L260.848 0.831998L267.472 2.32ZM294.185 20.704V27.376L274.985 35.68L272.585 30.16L287.753 24.016L272.585 17.68L274.985 12.352L294.185 20.704Z" fill="#141414"/>
</svg>
